FILE "By Darkness Forged A Seeker's Tale from the Golden Age of the Solar Clipper, Book 3.m4b" MP4
TRACK 1 AUDIO
  TITLE "Chapter 01"
  INDEX 01 0:0:00
TRACK 2 AUDIO
  TITLE "Chapter 02"
  INDEX 01 15:14:26
TRACK 3 AUDIO
  TITLE "Chapter 03"
  INDEX 01 23:28:52
TRACK 4 AUDIO
  TITLE "Chapter 04"
  INDEX 01 31:56:76
TRACK 5 AUDIO
  TITLE "Chapter 05"
  INDEX 01 46:5:26
TRACK 6 AUDIO
  TITLE "Chapter 06"
  INDEX 01 58:30:48
TRACK 7 AUDIO
  TITLE "Chapter 07"
  INDEX 01 68:52:03
TRACK 8 AUDIO
  TITLE "Chapter 08"
  INDEX 01 77:10:43
TRACK 9 AUDIO
  TITLE "Chapter 09"
  INDEX 01 90:44:01
TRACK 10 AUDIO
  TITLE "Chapter 10"
  INDEX 01 99:10:25
TRACK 11 AUDIO
  TITLE "Chapter 11"
  INDEX 01 111:10:95
TRACK 12 AUDIO
  TITLE "Chapter 12"
  INDEX 01 119:40:67
TRACK 13 AUDIO
  TITLE "Chapter 13"
  INDEX 01 125:58:46
TRACK 14 AUDIO
  TITLE "Chapter 14"
  INDEX 01 134:35:80
TRACK 15 AUDIO
  TITLE "Chapter 15"
  INDEX 01 141:31:77
TRACK 16 AUDIO
  TITLE "Chapter 16"
  INDEX 01 164:26:94
TRACK 17 AUDIO
  TITLE "Chapter 17"
  INDEX 01 180:33:87
TRACK 18 AUDIO
  TITLE "Chapter 18"
  INDEX 01 188:46:78
TRACK 19 AUDIO
  TITLE "Chapter 19"
  INDEX 01 205:20:64
TRACK 20 AUDIO
  TITLE "Chapter 20"
  INDEX 01 217:26:41
TRACK 21 AUDIO
  TITLE "Chapter 21"
  INDEX 01 226:21:11
TRACK 22 AUDIO
  TITLE "Chapter 22"
  INDEX 01 233:19:86
TRACK 23 AUDIO
  TITLE "Chapter 23"
  INDEX 01 241:23:21
TRACK 24 AUDIO
  TITLE "Chapter 24"
  INDEX 01 259:2:74
TRACK 25 AUDIO
  TITLE "Chapter 25"
  INDEX 01 269:55:82
TRACK 26 AUDIO
  TITLE "Chapter 26"
  INDEX 01 285:45:05
TRACK 27 AUDIO
  TITLE "Chapter 27"
  INDEX 01 305:13:76
TRACK 28 AUDIO
  TITLE "Chapter 28"
  INDEX 01 320:53:15
TRACK 29 AUDIO
  TITLE "Chapter 29"
  INDEX 01 346:50:83
TRACK 30 AUDIO
  TITLE "Chapter 30"
  INDEX 01 358:23:76
TRACK 31 AUDIO
  TITLE "Chapter 31"
  INDEX 01 365:44:34
TRACK 32 AUDIO
  TITLE "Chapter 32"
  INDEX 01 387:42:91
TRACK 33 AUDIO
  TITLE "Chapter 33"
  INDEX 01 416:38:83
TRACK 34 AUDIO
  TITLE "Chapter 34"
  INDEX 01 425:40:83
TRACK 35 AUDIO
  TITLE "Chapter 35"
  INDEX 01 439:0:06
TRACK 36 AUDIO
  TITLE "Chapter 36"
  INDEX 01 460:21:99
TRACK 37 AUDIO
  TITLE "Chapter 37"
  INDEX 01 466:10:01
TRACK 38 AUDIO
  TITLE "Chapter 38"
  INDEX 01 479:48:61
TRACK 39 AUDIO
  TITLE "Chapter 39"
  INDEX 01 505:53:12
TRACK 40 AUDIO
  TITLE "Chapter 40"
  INDEX 01 515:32:97
TRACK 41 AUDIO
  TITLE "Chapter 41"
  INDEX 01 522:40:49
TRACK 42 AUDIO
  TITLE "Chapter 42"
  INDEX 01 532:44:86
TRACK 43 AUDIO
  TITLE "Chapter 43"
  INDEX 01 540:17:61
TRACK 44 AUDIO
  TITLE "Chapter 44"
  INDEX 01 547:57:55
TRACK 45 AUDIO
  TITLE "Chapter 45"
  INDEX 01 554:1:13
TRACK 46 AUDIO
  TITLE "Chapter 46"
  INDEX 01 568:6:47
TRACK 47 AUDIO
  TITLE "Chapter 47"
  INDEX 01 580:44:18
TRACK 48 AUDIO
  TITLE "Chapter 48"
  INDEX 01 592:36:26
